<?xml version="1.0" encoding="UTF-8" standalone="no" ?>
<!DOCTYPE svg PUBLIC "-//W3C//DTD SVG 1.1//EN" "http://www.w3.org/Graphics/SVG/1.1/DTD/svg11.dtd">
<svg xmlns="http://www.w3.org/2000/svg" xmlns:xlink="http://www.w3.org/1999/xlink" version="1.1" width="640" height="480" viewBox="0 0 640 480" xml:space="preserve">
<desc>Created with Fabric.js 3.6.6</desc>
<defs>
</defs>
<g transform="matrix(8.17 0 0 5.77 122.03 285.79)"  >
<path style="stroke: none; stroke-width: 1; stroke-dasharray: none; stroke-linecap: butt; stroke-dashoffset: 0; stroke-linejoin: miter; stroke-miterlimit: 4; fill: rgb(255,255,255); fill-rule: nonzero; opacity: 1;"  transform=" translate(-16, -16)" d="M 2 7 L 2 25 L 30 25 L 30 7 L 2 7 z M 4 9 L 28 9 L 28 23 L 4 23 L 4 9 z M 6 11 L 6 21 L 9 21 C 10.654 21 12 19.654 12 18 L 12 14 C 12 12.346 10.654 11 9 11 L 6 11 z M 16 11 C 14.897 11 14 11.897 14 13 L 14 19 C 14 20.103 14.897 21 16 21 L 18 21 L 18 19 L 16 19 L 16 17 L 18 17 L 18 15 L 16 15 L 16 13 L 18 13 L 18 11 L 16 11 z M 19.691406 11 L 21.775391 20.025391 C 21.907391 20.595391 22.415 21 23 21 C 23.585 21 24.092609 20.595391 24.224609 20.025391 L 26.308594 11 L 24.255859 11 L 23 16.439453 L 21.744141 11 L 19.691406 11 z M 8 13 L 9 13 C 9.552 13 10 13.448 10 14 L 10 18 C 10 18.552 9.552 19 9 19 L 8 19 L 8 13 z" stroke-linecap="round" />
</g>
<g transform="matrix(4.8 0 0 4.8 443.97 291.14)" style=""  >
		<text xml:space="preserve" font-family="'Oswald', sans-serif" font-size="18" font-style="normal" font-weight="bold" style="stroke: none; stroke-width: 1; stroke-dasharray: none; stroke-linecap: butt; stroke-dashoffset: 0; stroke-linejoin: miter; stroke-miterlimit: 4; fill: rgb(255,255,255); fill-rule: nonzero; opacity: 1; white-space: pre;" ><tspan x="-40" y="5.65" style="stroke-width: 1; font-size: 18px; font-style: normal; ">J</tspan><tspan x="-32.58" y="5.65" style="stroke-width: 1; font-size: 18px; font-style: normal; ">O</tspan><tspan x="-20.88" y="5.65" style="stroke-width: 1; font-size: 18px; font-style: normal; ">U</tspan><tspan x="-9.11" y="5.65" style="stroke-width: 1; font-size: 18px; font-style: normal; ">R</tspan><tspan x="2.24" y="5.65" style="stroke-width: 1; font-size: 18px; font-style: normal; ">N</tspan><tspan x="13.74" y="5.65" style="stroke-width: 1; font-size: 18px; font-style: normal; ">E</tspan><tspan x="23.07" y="5.65" style="stroke-width: 1; font-size: 18px; font-style: normal; ">Y</tspan></text>
</g>
<g transform="matrix(1 0 0 1 272.82 161.03)"  >
<line style="stroke: rgb(0,0,0); stroke-width: 2; stroke-dasharray: none; stroke-linecap: butt; stroke-dashoffset: 0; stroke-linejoin: miter; stroke-miterlimit: 4; fill: rgb(0,0,0); fill-rule: nonzero; opacity: 1;"  x1="0" y1="0" x2="0" y2="0" />
</g>
<g transform="matrix(1 0 0 1 249.5 345)"  >
<path style="stroke: rgb(255,255,255); stroke-width: 1; stroke-dasharray: none; stroke-linecap: round; stroke-dashoffset: 0; stroke-linejoin: round; stroke-miterlimit: 10; fill: none; fill-rule: nonzero; opacity: 1;"  transform=" translate(-249.5, -345)" d="M 249.499 345 L 249.501 345" stroke-linecap="round" />
</g>
<g transform="matrix(2.26 0 0 2.26 157.46 287.59)"  >
<path style="stroke: rgb(255,255,255); stroke-width: 1; stroke-dasharray: none; stroke-linecap: round; stroke-dashoffset: 0; stroke-linejoin: round; stroke-miterlimit: 10; fill: none; fill-rule: nonzero; opacity: 1;"  transform=" translate(-309.5, -256)" d="M 309.499 256 L 309.501 256" stroke-linecap="round" />
</g>
</svg>